<svg xmlns="http://www.w3.org/2000/svg" width="32" height="24" fill="none"><g clip-path="url(#a)"><path fill="#00ABC2" d="M0 0h32v24H0z"/><path fill="#FFEC2D" d="M17.29 13.31a3.23 3.23 0 1 0 0-6.46 3.23 3.23 0 0 0 0 6.46M17.29 6.41c.192-.002.264-.122.264-.266 0-.192-.264-1.106-.264-1.106s-.264.914-.264 1.106c0 .144.072.266.264.266M20.96 10.08c.002.192.122.264.266.264.192 0 1.106-.264 1.106-.264s-.914-.264-1.106-.264c-.144 0-.266.072-.266.264M17.29 13.75c-.192.002-.264.122-.264.266 0 .192.264 1.106.264 1.106s.264-.914.264-1.106c0-.144-.072-.267-.264-.267M13.62 10.08c-.002-.192-.122-.264-.266-.264-.192 0-1.106.264-1.106.264s.914.264 1.106.264c.144 0 .266-.072.266-.264M18.694 6.69c.179.07.291-.012.346-.145.074-.178.18-1.124.18-1.124s-.594.744-.668.921c-.055.134-.035.274.142.348M20.68 11.484c-.071.178.012.29.145.346.178.073 1.124.18 1.124.18s-.744-.594-.922-.668c-.133-.055-.273-.035-.347.142M15.886 13.47c-.179-.071-.291.012-.346.145-.074.178-.18 1.124-.18 1.124s.594-.744.668-.922c.055-.133.035-.273-.142-.347M13.9 8.676c.071-.179-.012-.291-.145-.346-.178-.074-1.124-.18-1.124-.18s.744.594.922.668c.133.055.273.035.347-.142M19.885 7.485c.137.134.273.1.375-.001.135-.136.595-.97.595-.97s-.833.46-.969.596c-.101.102-.137.24-.001.375M19.885 12.675c-.134.137-.1.273.001.375.136.135.97.595.97.595s-.46-.833-.596-.969c-.102-.101-.24-.137-.375-.001M14.695 12.675c-.137-.134-.273-.1-.375.002-.136.135-.595.969-.595.969s.833-.46.969-.596c.101-.102.137-.24.001-.375M14.695 7.485c.134-.137.1-.273-.002-.375-.135-.136-.969-.596-.969-.596s.46.834.596.97c.102.101.24.137.375.001M20.68 8.676c.076.176.214.197.347.141.178-.073.922-.667.922-.667s-.946.106-1.124.18c-.133.055-.218.168-.145.345M18.694 13.47c-.176.076-.197.214-.142.347.074.178.668.922.668.922s-.106-.946-.18-1.124c-.055-.133-.168-.218-.346-.145M13.9 11.484c-.076-.176-.214-.197-.348-.142-.177.074-.92.667-.92.667s.945-.106 1.123-.179c.133-.055.218-.168.145-.346M15.886 6.69c.176-.076.197-.214.142-.347-.074-.178-.668-.922-.668-.922s.106.946.18 1.124c.055.133.168.218.346.145M18.01 6.482c.188.035.282-.069.31-.21.038-.188-.042-1.137-.042-1.137s-.438.845-.476 1.034c-.028.14.019.275.207.313M20.889 10.8c-.036.188.068.282.209.31.188.038 1.137-.042 1.137-.042s-.845-.438-1.034-.476c-.14-.028-.275.019-.312.207M16.57 13.679c-.188-.036-.282.068-.31.209-.038.188.042 1.137.042 1.137s.438-.845.476-1.033c.028-.142-.019-.276-.207-.314M13.692 9.361c.035-.189-.069-.283-.21-.31-.188-.039-1.137.041-1.137.041s.845.438 1.034.476c.14.028.275-.019.313-.207M19.331 7.03c.161.105.288.046.368-.074.107-.16.396-1.066.396-1.066s-.728.613-.835.772c-.08.12-.088.262.071.369"/><path fill="#FFEC2D" d="M20.34 12.121c-.105.161-.046.288.074.368.16.107 1.066.396 1.066.396s-.613-.728-.772-.835c-.12-.08-.262-.088-.369.071M15.249 13.13c-.161-.106-.288-.046-.368.074-.107.16-.396 1.066-.396 1.066s.728-.613.835-.772c.08-.12.088-.262-.071-.369M14.24 8.038c.105-.16.046-.287-.074-.367-.16-.107-1.066-.396-1.066-.396s.613.728.772.835c.12.08.262.088.369-.072M20.343 8.044c.108.158.248.152.368.072.16-.107.774-.834.774-.834s-.907.288-1.067.394c-.12.08-.182.208-.075.368M19.326 13.133c-.158.108-.152.248-.072.368.107.16.834.774.834.774s-.288-.907-.395-1.067c-.08-.12-.207-.182-.367-.075M14.237 12.116c-.109-.158-.248-.152-.368-.072-.16.107-.774.834-.774.834s.907-.288 1.067-.395c.12-.08.181-.207.075-.367M15.254 7.027c.158-.108.152-.248.072-.368-.107-.16-.834-.774-.834-.774s.288.907.394 1.067c.08.12.208.182.368.075M20.89 9.367c.04.188.171.236.312.208.189-.038 1.034-.474 1.034-.474s-.948-.082-1.136-.044c-.142.028-.248.122-.21.31M18.003 13.68c-.188.04-.236.171-.207.312.037.189.473 1.034.473 1.034s.082-.948.044-1.136c-.028-.142-.122-.248-.31-.21M13.69 10.793c-.04-.188-.171-.236-.312-.207-.189.037-1.034.473-1.034.473s.948.082 1.136.045c.141-.028.248-.123.21-.311M16.577 6.48c.188-.04.235-.17.207-.312-.037-.189-.473-1.034-.473-1.034s-.082.948-.044 1.136c.027.142.122.248.31.21"/><path fill="#FFEC2D" d="M17.18 15.72c-.085.151-.135.327-.24.463-.327-.295-.798-.288-1.21-.304-.341-.02-.71-.05-.975-.293-.276-.228-.504-.521-.811-.706a2 2 0 0 1-.794-.367c-.485-.396-.764-.984-1.239-1.392-.089-.087-.197-.156-.297-.23-.096.024-.053.23-.17.124-.066-.048-.226-.05-.24.015.143.192.29.408.311.652-.1.01-.276-.021-.324.015.132.198.298.37.49.511-.091.014-.271.007-.307.043.18.172.401.294.643.353.048.067-.075.197.031.255.06.024.262.067.122.136-.096.063-.06.214.063.21.077.04.25.047.264.12-.07.066-.281.148-.101.215.17.096.36.151.554.16-.096.083-.216.128-.314.205.444.261.936.432 1.426.6.192.062.39.122.592.16-.585-.033-1.152-.206-1.684-.443-.276-.12-.552-.238-.836-.341.123-.065.267-.082.396-.137-.268-.053-.559-.072-.792-.216.034-.067.168-.07.245-.103.144-.034.23-.072.031-.087-.201-.055-.432-.03-.612-.15.012-.073.2-.049.274-.08.096-.017.202-.031.278-.096-.312-.127-.72-.036-.964-.312-.056-.105.175-.021.24-.038.168 0 .348.052.508-.015-.456-.199-.943-.384-1.288-.753-.039-.06-.154-.223-.06-.243.268.036.463.33.753.284.039-.05-.168-.135-.22-.21a5.5 5.5 0 0 1-1.124-1.223c-.019-.161.228-.185.293-.063.322.312.612.672 1.013.883.144.07-.082-.081-.11-.136a7.2 7.2 0 0 1-.982-1.39c-.048-.091-.123-.257.017-.305.136-.07.276.024.345.144.271.344.473.752.811 1.037-.288-.56-.597-1.152-.604-1.795.007-.125.014-.312.184-.31.144-.021.12.161.168.248.14.475.2.988.48 1.406-.06-.35-.153-.713-.09-1.07.014-.12.143-.154.232-.082.07.168.084.381.146.564a5.7 5.7 0 0 0 2.232 3.053c.877.6 1.9.95 2.96 1.015.096.01.192.012.285.017m3.274 2.186c-.173.106-.307-.081-.451-.137-.106.058-.116.245-.212.336-.115.132-.259-.038-.247-.168-.139.118-.209.384-.432.346-.108-.086-.187-.269-.269-.06-.064.1-.24.245-.333.091-.029-.134-.096-.293-.168-.08-.053.155-.216.265-.37.198-.086-.07.067-.33-.04-.312-.164.11-.26.377-.488.355-.089-.096.055-.267-.043-.377-.113.146-.24.363-.44.377-.095-.077.006-.3-.057-.331-.201.12-.417.338-.672.27.099-.383.516-.515.864-.544.603-.074 1.236.063 1.817-.156.094-.058.32-.137.24-.269-.072-.105.185-.065.209-.187-.015-.154.12-.132.25-.144.585-.026 1.163.096 1.747.118.043.283-.272.482-.528.396-.12.019-.3-.279-.264-.063-.024.116-.01.264-.113.341m-4.978-.58c.135.122.23-.025.358-.08a4.7 4.7 0 0 0 1.159-.655c.22-.182.413-.42.71-.48.581-.175 1.198-.154 1.779-.317.444-.605 1.195-.823 1.826-1.171.142-.043.197-.16.24-.288.24-.382.569-.718.958-.948a.9.9 0 0 1 .61-.11c-.03.244-.146.47-.33.636.142-.003.265-.092.404-.087.048.255-.226.386-.372.545.081.02.393.043.223.125-.216.149-.463.252-.662.427.184.034.206.072.019.14-.103.066-.298.09-.317.225.14.086-.062.168-.142.197-.148.035-.307.1-.108.215-.074.113-.237.137-.37.125.042.13.1.274-.066.331-.372.294-.817.48-1.287.538.588.043 1.195-.065 1.697-.384.067-.08.415-.166.22-.23-.09-.039-.287-.082-.302-.151.274-.168.617-.108.91-.207.007-.096-.223-.07-.31-.091-.204-.017-.192-.07.005-.089.25-.067.533-.08.744-.24-.17-.082-.386-.012-.569-.077.31-.134.675-.149.953-.353.127-.141-.163-.095-.247-.093-.17.031-.25-.053-.055-.122.333-.248.753-.406.989-.761.055-.08.13-.32-.048-.236-.23.08-.435.339-.701.26.523-.406 1.017-.864 1.375-1.423.02-.164-.235-.18-.3-.053-.336.321-.638.703-1.068.907a6.7 6.7 0 0 0 1.046-1.354c.065-.144.236-.319.144-.48-.15-.125-.338-.01-.415.137-.261.34-.458.737-.792 1.015.29-.559.595-1.156.6-1.8 0-.134-.024-.33-.206-.305-.144.024-.108.24-.168.349-.13.441-.192.919-.456 1.303.06-.358.163-.732.084-1.092-.039-.163-.3-.094-.264.067-.312 1.582-1.375 2.964-2.76 3.763-.636.36-1.344.59-2.069.696-.192.04-.403.017-.588.084-.451.343-.722.922-1.291 1.102-.257.127-.588.153-.77.389a.2.2 0 0 0-.02.1m1.241-.248c-.086.005-.17.014-.254.04-.113.018-.221.056-.332.073l-.045.01-.075.007q.015.061 0 .122a.2.2 0 0 1-.033.048.13.13 0 0 1-.053.043.2.2 0 0 1-.062.017c-.022 0-.044 0-.065-.01a.2.2 0 0 1-.06-.035l-.067.012h-.063l-.067-.024a.4.4 0 0 1-.062-.032c-.082.048-.173.094-.224.178a.26.26 0 0 0-.038.127.34.34 0 0 0 .034.168c.01.014.016-.055.043-.065a.4.4 0 0 1 .16-.079c.049-.024.041 0 .022.039-.005.021-.031.096.005.057q.25-.093.518-.098c.255-.027.51-.034.764-.036l.72.014c.115.005.23.029.343.01.026-.008.07-.008.086-.024-.053-.03-.113-.032-.168-.039h-.458c-.127-.012-.26-.014-.38-.062-.033-.012-.062-.043-.093-.01a.6.6 0 0 1-.142.031.6.6 0 0 1-.244-.043c.055-.076.122-.144.184-.216l-.148-.03c.088-.06.168-.13.254-.193"/><path fill="#FFEC2D" d="M15.84 17.36a.057.057 0 1 0 0-.116.057.057 0 0 0 0 .115"/><path fill="#FFEC2D" stroke="#FFEC2D" stroke-width=".192" d="M15.835 17.316c.013 0 .024-.01.024-.024a.024.024 0 1 0-.024.024Z"/><path fill="#FFEC2D" d="M2.88 1.752s-.23-.197-.31-.098c-.124.156.39.936.39 1.21 0 .45-.303.573-.673.635-.25.043-.655-.017-.655-.017.077-.103.127-.134.254-.141a.53.53 0 0 1-.288-.487c0-.387.159-.548.159-.984 0-.238-.197-.55-.197-.55.35.036.523.36.425.62a.17.17 0 0 0 .15-.046c.025.072-.013.156-.069.228.044.024.077.01.144-.005-.004.072-.048.153-.158.228.317-.082.509.137.509.367 0 .175-.12.3-.24.3a.24.24 0 0 1-.127-.04c-.024.047-.01.112.012.16-.087-.024-.144-.077-.104-.185a.21.21 0 0 1-.156-.072.19.19 0 0 1 .156-.072c-.048-.1.008-.156.087-.201 0 0-.05.201.077.201.057 0 .11-.017.11-.103 0-.074-.065-.178-.216-.17-.149.007-.271.103-.271.343 0 .22.18.331.415.336.211.01.372-.106.372-.324 0-.293-.42-.955-.42-1.215 0-.194.173-.304.346-.304.22 0 .408.22.408.22l-.13.164z"/><path fill="#FFEC2D" d="M2.928 7.01c0 .488-.437.737-.78.737-.46 0-.708-.276-.708-.638 0-.204.038-.334.132-.528l1.06-2.201a.65.65 0 0 0 .049-.293c0-.197-.192-.357-.391-.36-.183-.007-.384.168-.384.367 0 .243.127.35.256.35.159 0 .221-.064.221-.177 0-.077-.036-.11-.091-.11-.137 0-.096.182-.096.182a.125.125 0 0 1-.094-.168.25.25 0 0 1-.132-.079.25.25 0 0 1 .132-.072c-.03-.106.012-.156.104-.18a.2.2 0 0 0-.012.115c.144-.043.367.024.367.274s-.173.458-.497.408c.077.036.115.11.125.194-.06-.024-.125-.024-.125-.024.038.065.091.12.089.255-.06-.03-.118-.08-.192-.048.12.24-.03.566-.408.643a.78.78 0 0 0 .206-.511c0-.564-.156-.658-.156-1.052a.58.58 0 0 1 .252-.46v.007a.34.34 0 0 1-.223-.161c.267-.074.55-.071.816.007a.6.6 0 0 1 .432.288.86.86 0 0 1 0 .694 459 459 0 0 0-1.078 2.285.7.7 0 0 0-.074.321c0 .288.264.389.413.389.18 0 .365-.137.365-.307 0-.108-.06-.175-.144-.175-.204 0-.192.172-.152.283-.127-.058-.199-.159-.18-.264a.34.34 0 0 1-.201-.115c.048-.063.11-.11.201-.113-.04-.166.072-.235.18-.274-.033.12-.057.262.152.262.15 0 .268.024.338.125l.017-.648c.01-.195-.26-.192-.432-.132.065-.224.197-.346.504-.315a.24.24 0 0 1-.154-.235c0-.182.149-.384.245-.444l.048 1.896z"/><path fill="#FFEC2D" d="M2.928 8.47c0-.488-.437-.737-.78-.737-.46 0-.708.276-.708.638 0 .204.038.334.132.528l1.06 2.201a.65.65 0 0 1 .049.293c0 .197-.192.357-.391.36-.183.007-.384-.168-.384-.367 0-.243.127-.35.256-.35.159 0 .221.064.221.177 0 .077-.036.11-.091.11-.137 0-.096-.182-.096-.182a.124.124 0 0 0-.094.168.25.25 0 0 0-.132.079q.054.055.132.072c-.03.106.012.156.104.18a.2.2 0 0 1-.012-.115c.144.043.367-.024.367-.274s-.173-.458-.497-.408c.077-.036.115-.11.125-.194-.06.024-.125.024-.125.024.038-.065.091-.12.089-.255-.06.03-.118.08-.192.048.12-.24-.03-.566-.408-.643.139.163.206.336.206.511 0 .564-.156.658-.156 1.052a.58.58 0 0 0 .252.46v-.007a.34.34 0 0 0-.223.161c.267.074.55.071.816-.007a.6.6 0 0 0 .432-.288.86.86 0 0 0 0-.694c-.151-.312-.857-1.814-1.078-2.285a.7.7 0 0 1-.074-.321c0-.288.264-.389.413-.389.18 0 .365.137.365.307 0 .108-.06.175-.144.175-.204 0-.192-.172-.152-.283-.127.058-.199.159-.18.264a.34.34 0 0 0-.201.115c.048.063.11.11.201.113-.04.166.072.235.18.274-.033-.12-.057-.262.152-.262.15 0 .268-.024.338-.125l.017.648c.01.195-.26.192-.432.132.065.224.197.346.504.315a.24.24 0 0 0-.154.235c0 .182.149.384.245.444l.048-1.896zM2.88 1.752s.23-.197.31-.098c.124.156-.39.936-.39 1.21 0 .45.303.573.673.635.25.043.655-.017.655-.017-.077-.103-.127-.134-.254-.141a.53.53 0 0 0 .288-.487c0-.387-.159-.548-.159-.984 0-.238.197-.55.197-.55-.35.036-.523.36-.425.62a.17.17 0 0 1-.151-.046c-.024.072.014.156.07.228-.044.024-.077.01-.144-.005.004.072.048.153.158.228-.317-.082-.509.137-.509.367 0 .175.12.3.24.3a.24.24 0 0 0 .127-.04c.024.047.01.112-.012.16.087-.024.144-.077.104-.185a.21.21 0 0 0 .156-.072.19.19 0 0 0-.156-.072c.048-.1-.008-.156-.087-.201 0 0 .05.201-.077.201-.057 0-.11-.017-.11-.103 0-.074.065-.178.216-.17.149.007.271.103.271.343 0 .22-.18.331-.415.336-.211.01-.372-.106-.372-.324 0-.293.42-.955.42-1.215 0-.194-.173-.304-.346-.304-.22 0-.408.22-.408.22l.13.164z"/><path fill="#FFEC2D" d="M2.832 7.01c0 .488.437.737.78.737.46 0 .708-.276.708-.638 0-.204-.038-.334-.132-.528L3.128 4.38a.65.65 0 0 1-.049-.293c0-.197.192-.357.391-.36.183-.007.384.168.384.367 0 .243-.127.35-.256.35-.159 0-.221-.064-.221-.177 0-.077.036-.11.091-.11.137 0 .096.182.096.182a.125.125 0 0 0 .094-.168.25.25 0 0 0 .132-.079.25.25 0 0 0-.132-.072c.03-.106-.012-.156-.104-.18q.026.056.012.115c-.144-.043-.367.024-.367.274s.173.458.497.408c-.077.036-.115.11-.125.194.06-.024.125-.024.125-.024-.038.065-.091.12-.089.255.06-.03.118-.08.192-.048-.12.24.029.566.408.643a.78.78 0 0 1-.206-.511c0-.564.156-.658.156-1.052a.58.58 0 0 0-.252-.46v.007a.34.34 0 0 0 .223-.161 1.5 1.5 0 0 0-.816.007.6.6 0 0 0-.432.288.86.86 0 0 0 0 .694c.151.312.857 1.814 1.078 2.285q.073.15.074.321c0 .288-.264.389-.413.389-.18 0-.365-.137-.365-.307 0-.108.06-.175.144-.175.204 0 .192.172.152.283.127-.058.199-.159.18-.264a.34.34 0 0 0 .201-.115c-.048-.063-.11-.11-.201-.113.04-.166-.072-.235-.18-.274.033.12.057.262-.152.262-.15 0-.268.024-.338.125l-.017-.648c-.01-.195.26-.192.432-.132-.065-.224-.197-.346-.504-.315a.24.24 0 0 0 .154-.235c0-.182-.149-.384-.245-.444l-.048 1.896z"/><path fill="#FFEC2D" d="M2.832 8.47c0-.488.437-.737.78-.737.46 0 .708.276.708.638 0 .204-.038.334-.132.528L3.128 11.1a.65.65 0 0 0-.049.293c0 .197.192.357.391.36.183.007.384-.168.384-.367 0-.243-.127-.35-.256-.35-.159 0-.221.064-.221.177 0 .077.036.11.091.11.137 0 .096-.182.096-.182a.124.124 0 0 1 .094.168c.05.011.097.04.132.079a.25.25 0 0 1-.132.072c.03.106-.012.156-.104.18a.2.2 0 0 0 .012-.115c-.144.043-.367-.024-.367-.274s.173-.458.497-.408c-.077-.036-.115-.11-.125-.194.06.024.125.024.125.024-.038-.065-.091-.12-.089-.255.06.03.118.08.192.048-.12-.24.029-.566.408-.643a.78.78 0 0 0-.206.511c0 .564.156.658.156 1.052a.58.58 0 0 1-.252.46v-.007a.34.34 0 0 1 .223.161c-.267.074-.55.071-.816-.007a.6.6 0 0 1-.432-.288.86.86 0 0 1 0-.694c.151-.312.857-1.814 1.078-2.285a.7.7 0 0 0 .074-.321c0-.288-.264-.389-.413-.389-.18 0-.365.137-.365.307 0 .108.06.175.144.175.204 0 .192-.172.152-.283.127.058.199.159.18.264.078.013.15.054.201.115-.048.063-.11.11-.201.113.04.166-.072.235-.18.274.033-.12.057-.262-.152-.262-.15 0-.268-.024-.338-.125l-.017.648c-.01.195.26.192.432.132-.065.224-.197.346-.504.315a.24.24 0 0 1 .154.235c0 .182-.149.384-.245.444l-.048-1.896zM2.88 22.248s-.23.197-.31.099c-.124-.156.39-.936.39-1.21 0-.451-.303-.574-.673-.636-.25-.043-.655.017-.655.017.077.103.127.134.254.141a.53.53 0 0 0-.288.488c0 .386.159.547.159.984 0 .237-.197.55-.197.55.35-.037.523-.36.425-.62a.17.17 0 0 1 .15.046c.025-.072-.013-.156-.069-.228.044-.024.077-.01.144.004-.004-.072-.048-.153-.158-.228.317.082.509-.136.509-.367 0-.175-.12-.3-.24-.3a.24.24 0 0 0-.127.041c-.024-.048-.01-.113.012-.16-.087.023-.144.076-.104.184a.21.21 0 0 0-.156.072.19.19 0 0 0 .156.072c-.048.1.008.156.087.202 0 0-.05-.202.077-.202.057 0 .11.017.11.103 0 .075-.065.178-.216.17-.149-.007-.271-.103-.271-.343 0-.22.18-.33.415-.336.211-.01.372.106.372.324 0 .293-.42.956-.42 1.215 0 .194.173.305.346.305.22 0 .408-.221.408-.221l-.13-.163z"/><path fill="#FFEC2D" d="M2.928 16.99c0-.487-.437-.737-.78-.737-.46 0-.708.276-.708.638 0 .204.038.334.132.528l1.06 2.201a.65.65 0 0 1 .049.293c0 .197-.192.358-.391.36-.183.007-.384-.168-.384-.367 0-.243.127-.35.256-.35.159 0 .221.064.221.177 0 .077-.036.11-.091.11-.137 0-.096-.182-.096-.182a.13.13 0 0 0-.102.114.1.1 0 0 0 .008.054.25.25 0 0 0-.132.08c.036.035.08.062.132.071-.03.106.012.156.104.18a.2.2 0 0 1-.012-.115c.144.043.367-.024.367-.274s-.173-.458-.497-.408c.077-.036.115-.11.125-.194-.06.024-.125.024-.125.024.038-.065.091-.12.089-.254-.06.028-.118.079-.192.048.12-.24-.03-.567-.408-.644q.207.247.206.512c0 .564-.156.657-.156 1.05a.58.58 0 0 0 .252.462v-.008a.34.34 0 0 0-.223.161c.267.074.55.071.816-.007a.6.6 0 0 0 .432-.288.86.86 0 0 0 0-.694 459 459 0 0 1-1.078-2.284.7.7 0 0 1-.074-.322c0-.288.264-.389.413-.389.18 0 .365.137.365.307 0 .108-.06.176-.144.176-.204 0-.192-.173-.152-.284-.127.058-.199.159-.18.264a.34.34 0 0 0-.201.116c.048.062.11.11.201.112-.04.166.072.236.18.274-.033-.12-.057-.262.152-.262.15 0 .268-.024.338-.124l.017.648c.01.194-.26.192-.432.132.065.223.197.345.504.314a.24.24 0 0 0-.154.235c0 .183.149.384.245.444l.048-1.896z"/><path fill="#FFEC2D" d="M2.928 15.53c0 .488-.437.737-.78.737-.46 0-.708-.275-.708-.638 0-.204.038-.333.132-.528l1.06-2.2a.65.65 0 0 0 .049-.293c0-.197-.192-.358-.391-.36-.183-.008-.384.168-.384.367 0 .242.127.35.256.35.159 0 .221-.065.221-.178 0-.076-.036-.11-.091-.11-.137 0-.096.183-.096.183a.126.126 0 0 1-.102-.115.1.1 0 0 1 .008-.053.25.25 0 0 1-.132-.08.25.25 0 0 1 .132-.072c-.03-.105.012-.156.104-.18a.2.2 0 0 0-.012.116c.144-.044.367.023.367.273s-.173.458-.497.408c.077.036.115.11.125.194-.06-.024-.125-.024-.125-.024.038.065.091.12.089.255-.06-.029-.118-.08-.192-.048.12.24-.03.566-.408.643a.78.78 0 0 0 .206-.511c0-.564-.156-.658-.156-1.051a.58.58 0 0 1 .252-.461v.007a.34.34 0 0 1-.223-.16c.267-.074.55-.072.816.007a.6.6 0 0 1 .432.288.86.86 0 0 1 0 .693 459 459 0 0 0-1.078 2.285.7.7 0 0 0-.074.322c0 .287.264.388.413.388.18 0 .365-.136.365-.307 0-.108-.06-.175-.144-.175-.204 0-.192.173-.152.283-.127-.058-.199-.158-.18-.264a.34.34 0 0 1-.201-.115c.048-.062.11-.11.201-.113-.04-.165.072-.235.18-.273-.033.12-.057.261.152.261.15 0 .268.024.338.125l.017-.648c.01-.194-.26-.192-.432-.132.065-.223.197-.346.504-.314a.24.24 0 0 1-.154-.236c0-.182.149-.384.245-.444l.048 1.896zM2.88 22.248s.23.197.31.099c.124-.156-.39-.936-.39-1.21 0-.451.303-.574.673-.636.25-.043.655.017.655.017-.077.103-.127.134-.254.141a.53.53 0 0 1 .288.488c0 .386-.159.547-.159.984 0 .237.197.55.197.55-.35-.037-.523-.36-.425-.62a.17.17 0 0 0-.151.046c-.024-.072.014-.156.07-.228-.044-.024-.077-.01-.144.004.004-.072.048-.153.158-.228-.317.082-.509-.136-.509-.367 0-.175.12-.3.24-.3.039 0 .096.017.127.041.024-.048.01-.113-.012-.16.087.023.144.076.104.184q.101.007.156.072a.19.19 0 0 1-.156.072c.048.1-.008.156-.087.202 0 0 .05-.202-.077-.202-.057 0-.11.017-.11.103 0 .075.065.178.216.17.149-.007.271-.103.271-.343 0-.22-.18-.33-.415-.336-.211-.01-.372.106-.372.324 0 .293.42.956.42 1.215 0 .194-.173.305-.346.305-.22 0-.408-.221-.408-.221l.13-.163z"/><path fill="#FFEC2D" d="M2.832 16.99c0-.487.437-.737.78-.737.46 0 .708.276.708.638 0 .204-.038.334-.132.528l-1.06 2.201a.65.65 0 0 0-.049.293c0 .197.192.358.391.36.183.007.384-.168.384-.367 0-.243-.127-.35-.256-.35-.159 0-.221.064-.221.177 0 .077.036.11.091.11.137 0 .096-.182.096-.182a.13.13 0 0 1 .102.114.1.1 0 0 1-.008.054c.05.012.097.04.132.08a.25.25 0 0 1-.132.071c.03.106-.012.156-.104.18a.2.2 0 0 0 .012-.115c-.144.043-.367-.024-.367-.274s.173-.458.497-.408c-.077-.036-.115-.11-.125-.194.06.024.125.024.125.024-.038-.065-.091-.12-.089-.254.06.028.118.079.192.048-.12-.24.029-.567.408-.644a.78.78 0 0 0-.206.512c0 .564.156.657.156 1.05a.58.58 0 0 1-.252.462v-.008a.34.34 0 0 1 .223.161c-.267.074-.55.071-.816-.007a.6.6 0 0 1-.432-.288.86.86 0 0 1 0-.694c.151-.312.857-1.814 1.078-2.284a.7.7 0 0 0 .074-.322c0-.288-.264-.389-.413-.389-.18 0-.365.137-.365.307 0 .108.06.176.144.176.204 0 .192-.173.152-.284.127.058.199.159.18.264.078.014.15.055.201.116-.048.062-.11.11-.201.112.04.166-.072.236-.18.274.033-.12.057-.262-.152-.262-.15 0-.268-.024-.338-.124l-.017.648c-.01.194.26.192.432.132-.065.223-.197.345-.504.314a.24.24 0 0 1 .154.235c0 .183-.149.384-.245.444l-.048-1.896z"/><path fill="#FFEC2D" d="M2.832 15.53c0 .488.437.737.78.737.46 0 .708-.275.708-.638 0-.204-.038-.333-.132-.528l-1.06-2.2a.65.65 0 0 1-.049-.293c0-.197.192-.358.391-.36.183-.008.384.168.384.367 0 .242-.127.35-.256.35-.159 0-.221-.065-.221-.178 0-.076.036-.11.091-.11.137 0 .096.183.096.183a.126.126 0 0 0 .102-.115.1.1 0 0 0-.008-.053.25.25 0 0 0 .132-.08.25.25 0 0 0-.132-.072c.03-.105-.012-.156-.104-.18q.026.056.012.116c-.144-.044-.367.023-.367.273s.173.458.497.408c-.077.036-.115.11-.125.194.06-.024.125-.024.125-.024-.038.065-.091.12-.089.255.06-.029.118-.08.192-.048-.12.24.029.566.408.643a.78.78 0 0 1-.206-.511c0-.564.156-.658.156-1.051a.58.58 0 0 0-.252-.461v.007a.34.34 0 0 0 .223-.16 1.5 1.5 0 0 0-.816.007.6.6 0 0 0-.432.288.86.86 0 0 0 0 .693c.151.312.857 1.814 1.078 2.285q.073.149.074.322c0 .287-.264.388-.413.388-.18 0-.365-.136-.365-.307 0-.108.06-.175.144-.175.204 0 .192.173.152.283.127-.058.199-.158.18-.264a.34.34 0 0 0 .201-.115c-.048-.062-.11-.11-.201-.113.04-.165-.072-.235-.18-.273.033.12.057.261-.152.261-.15 0-.268.024-.338.125l-.017-.648c-.01-.194.26-.192.432-.132-.065-.223-.197-.346-.504-.314a.24.24 0 0 0 .154-.236c0-.182-.149-.384-.245-.444l-.048 1.896z"/></g><defs><clipPath id="a"><rect width="32" height="24" fill="#fff" rx="4"/></clipPath></defs></svg>